<?xml version="1.0" encoding="UTF-8" standalone="no"?>
<svg
   xmlns:dc="http://purl.org/dc/elements/1.1/"
   xmlns:cc="http://creativecommons.org/ns#"
   xmlns:rdf="http://www.w3.org/1999/02/22-rdf-syntax-ns#"
   xmlns:svg="http://www.w3.org/2000/svg"
   xmlns="http://www.w3.org/2000/svg"
   xmlns:sodipodi="http://sodipodi.sourceforge.net/DTD/sodipodi-0.dtd"
   xmlns:inkscape="http://www.inkscape.org/namespaces/inkscape"
   version="1.1"
   id="svg2"
   xml:space="preserve"
   width="377.94666"
   height="377.94666"
   viewBox="0 0 377.94666 377.94666"
   sodipodi:docname="chap1-d-white.eps"><metadata
     id="metadata8"><rdf:RDF><cc:Work
         rdf:about=""><dc:format>image/svg+xml</dc:format><dc:type
           rdf:resource="http://purl.org/dc/dcmitype/StillImage" /></cc:Work></rdf:RDF></metadata><defs
     id="defs6" /><sodipodi:namedview
     pagecolor="#ffffff"
     bordercolor="#666666"
     borderopacity="1"
     objecttolerance="10"
     gridtolerance="10"
     guidetolerance="10"
     inkscape:pageopacity="0"
     inkscape:pageshadow="2"
     inkscape:window-width="640"
     inkscape:window-height="480"
     id="namedview4" /><g
     id="g10"
     inkscape:groupmode="layer"
     inkscape:label="ink_ext_XXXXXX"
     transform="matrix(1.3333333,0,0,-1.3333333,0,377.94667)"><g
       id="g12"
       transform="scale(0.1)"><path
         d="M 1417.32,2834.48 C 634.559,2834.48 -0.00390625,2199.93 -0.00390625,1417.17 -0.00390625,655.379 601.051,34.1914 1354.76,1.42969 V 1037.32 c -57.21,-27.51 -130.02,-51.289 -248.5,-53.308 -399.479,-5.961 -490.119,226.578 -493.783,236.508 l 70.636,27.08 c 2.938,-7.55 77.086,-192.64 421.907,-186.54 127.38,2.15 190.6,30.26 249.74,62.53 v 137.91 c -120,-10.53 -460.506,-24.31 -655.994,131.23 -80.481,64.03 -127.246,149.17 -138.993,253.09 -11.25,99.59 15.223,191.88 74.559,259.88 44.629,51.15 129.426,112.11 279.949,112.11 v -77.04 c -97.008,0 -174.351,-29.85 -223.629,-86.34 -44.828,-51.34 -64.687,-122.31 -55.937,-199.76 9.473,-83.75 45.555,-149.52 110.312,-201.09 210,-167.22 638.173,-111.76 642.513,-111.16 l 42.64,5.74 0.01,-183.94 c 56.99,27.69 126.78,50.24 243.29,50.24 h 37.7 l 0.25,-1183.8702 c 67.73,14.2891 133.69,33.3516 197.47,56.9297 V 1746.84 c -120.64,-75.85 -407.03,-232.44 -715.41,-232.44 -153.02,0 -260.205,35.32 -318.592,104.99 -43.035,51.34 -47.636,110.13 -43.554,136.76 l 74.519,-11.88 c -0.117,-1.08 -4.383,-39.24 27.571,-76.24 30.195,-34.94 99.816,-76.59 260.056,-76.59 373.63,0 727.64,255.34 731.18,257.93 l 59.65,43.55 0.02,-1774.772 c 500.44,218.762 850.3,717.911 850.3,1299.022 0,782.76 -634.56,1417.31 -1417.32,1417.31"
         style="fill:#ffffff;fill-opacity:1;fill-rule:nonzero;stroke:none"
         id="path14" /><path
         d="m 1635.78,1136.49 c -98.97,-5.07 -153.6,-30.29 -205.59,-58.77 V 0.171875 c 69.91,0.617188 138.65,6.109375 205.8,16.507825 l -0.21,1119.8103"
         style="fill:#ffffff;fill-opacity:1;fill-rule:nonzero;stroke:none"
         id="path16" /></g></g></svg>
